<svg width="59" height="100" viewBox="0 0 59 100" fill="none" xmlns="http://www.w3.org/2000/svg">
<path d="M29.5 28L50.425 35.47L47.2345 63.1675L29.5 73L11.7655 63.1675L8.57501 35.47L29.5 28ZM29.5 32.9725L16.4185 62.335H21.2965L23.9268 55.765H35.0283L37.6608 62.335H42.5365L29.5 32.9725ZM33.3205 51.715H25.6795L29.5 42.5125L33.3205 51.715Z" fill="white"/>
<path d="M7.33073 94.264H3.66273L3.07473 96H0.568727L4.12473 86.172H6.89673L10.4527 96H7.91873L7.33073 94.264ZM6.71473 92.416L5.49673 88.818L4.29273 92.416H6.71473ZM16.295 88.104C17.2097 88.104 17.9377 88.4027 18.479 89C19.0297 89.588 19.305 90.4 19.305 91.436V96H16.925V91.758C16.925 91.2353 16.7897 90.8293 16.519 90.54C16.2483 90.2507 15.8843 90.106 15.427 90.106C14.9697 90.106 14.6057 90.2507 14.335 90.54C14.0643 90.8293 13.929 91.2353 13.929 91.758V96H11.535V88.188H13.929V89.224C14.1717 88.8787 14.4983 88.608 14.909 88.412C15.3197 88.2067 15.7817 88.104 16.295 88.104ZM23.9366 88.076C24.4873 88.076 24.9679 88.188 25.3786 88.412C25.7986 88.636 26.1206 88.93 26.3446 89.294V88.188H28.7386V95.986C28.7386 96.7047 28.5939 97.3533 28.3046 97.932C28.0246 98.52 27.5906 98.9867 27.0026 99.332C26.4239 99.6773 25.7006 99.85 24.8326 99.85C23.6753 99.85 22.7373 99.5747 22.0186 99.024C21.2999 98.4827 20.8893 97.7453 20.7866 96.812H23.1526C23.2273 97.1107 23.4046 97.344 23.6846 97.512C23.9646 97.6893 24.3099 97.778 24.7206 97.778C25.2153 97.778 25.6073 97.6333 25.8966 97.344C26.1953 97.064 26.3446 96.6113 26.3446 95.986V94.88C26.1113 95.244 25.7893 95.5427 25.3786 95.776C24.9679 96 24.4873 96.112 23.9366 96.112C23.2926 96.112 22.7093 95.9487 22.1866 95.622C21.6639 95.286 21.2486 94.8147 20.9406 94.208C20.6419 93.592 20.4926 92.8827 20.4926 92.08C20.4926 91.2773 20.6419 90.5727 20.9406 89.966C21.2486 89.3593 21.6639 88.8927 22.1866 88.566C22.7093 88.2393 23.2926 88.076 23.9366 88.076ZM26.3446 92.094C26.3446 91.4967 26.1766 91.0253 25.8406 90.68C25.5139 90.3347 25.1126 90.162 24.6366 90.162C24.1606 90.162 23.7546 90.3347 23.4186 90.68C23.0919 91.016 22.9286 91.4827 22.9286 92.08C22.9286 92.6773 23.0919 93.1533 23.4186 93.508C23.7546 93.8533 24.1606 94.026 24.6366 94.026C25.1126 94.026 25.5139 93.8533 25.8406 93.508C26.1766 93.1627 26.3446 92.6913 26.3446 92.094ZM38.1845 88.188V96H35.7905V94.936C35.5479 95.2813 35.2165 95.5613 34.7965 95.776C34.3859 95.9813 33.9285 96.084 33.4245 96.084C32.8272 96.084 32.2999 95.9533 31.8425 95.692C31.3852 95.4213 31.0305 95.034 30.7785 94.53C30.5265 94.026 30.4005 93.4333 30.4005 92.752V88.188H32.7805V92.43C32.7805 92.9527 32.9159 93.3587 33.1865 93.648C33.4572 93.9373 33.8212 94.082 34.2785 94.082C34.7452 94.082 35.1139 93.9373 35.3845 93.648C35.6552 93.3587 35.7905 92.9527 35.7905 92.43V88.188H38.1845ZM42.2981 85.64V96H39.9041V85.64H42.2981ZM43.557 92.08C43.557 91.2773 43.7064 90.5727 44.005 89.966C44.313 89.3593 44.7284 88.8927 45.251 88.566C45.7737 88.2393 46.357 88.076 47.001 88.076C47.5517 88.076 48.0324 88.188 48.443 88.412C48.863 88.636 49.185 88.93 49.409 89.294V88.188H51.803V96H49.409V94.894C49.1757 95.258 48.849 95.552 48.429 95.776C48.0184 96 47.5377 96.112 46.987 96.112C46.3524 96.112 45.7737 95.9487 45.251 95.622C44.7284 95.286 44.313 94.8147 44.005 94.208C43.7064 93.592 43.557 92.8827 43.557 92.08ZM49.409 92.094C49.409 91.4967 49.241 91.0253 48.905 90.68C48.5784 90.3347 48.177 90.162 47.701 90.162C47.225 90.162 46.819 90.3347 46.483 90.68C46.1564 91.016 45.993 91.4827 45.993 92.08C45.993 92.6773 46.1564 93.1533 46.483 93.508C46.819 93.8533 47.225 94.026 47.701 94.026C48.177 94.026 48.5784 93.8533 48.905 93.508C49.241 93.1627 49.409 92.6913 49.409 92.094ZM55.929 89.49C56.209 89.0607 56.559 88.7247 56.979 88.482C57.399 88.23 57.8657 88.104 58.379 88.104V90.638H57.721C57.1237 90.638 56.6757 90.7687 56.377 91.03C56.0783 91.282 55.929 91.73 55.929 92.374V96H53.535V88.188H55.929V89.49Z" fill="white"/>
</svg>
