<svg width="41" height="100" viewBox="0 0 41 100" fill="none" xmlns="http://www.w3.org/2000/svg">
<path d="M0.633654 28.0079C0.633654 28.1824 0.625718 28.3013 0.633654 28.4203C0.935227 31.7189 1.2368 35.0175 1.53044 38.3241C1.94311 43.0025 2.34786 47.6808 2.76054 52.3513C3.22877 57.6006 3.70493 62.8419 4.15729 68.0912C4.18904 68.4718 4.32395 68.6383 4.68108 68.7335C9.7602 70.1291 14.8234 71.5326 19.9026 72.9202C20.2438 73.0154 20.6565 73.0312 20.9977 72.9361C26.0927 71.5405 31.1798 70.1211 36.2748 68.7176C36.6637 68.6066 36.7986 68.4322 36.8303 68.0357C36.989 66.0533 37.1795 64.063 37.3541 62.0807C37.6477 58.7979 37.9334 55.5151 38.2271 52.2323C38.5683 48.3786 38.9175 44.5329 39.2588 40.6792C39.5127 37.8087 39.7826 34.9462 40.0365 32.0757C40.1555 30.7277 40.2587 29.3797 40.3698 28H0.633654V28.0079ZM32.7035 39.458C32.4416 42.3602 32.1797 45.2703 31.9179 48.1725C31.6163 51.5108 31.3147 54.849 31.0131 58.1794C30.9258 59.1389 30.7989 60.0983 30.7751 61.0657C30.7592 61.5811 30.537 61.7159 30.1084 61.8349C27.0451 62.6595 23.9897 63.508 20.9343 64.3485C20.7993 64.3881 20.6724 64.4357 20.5375 64.4754C20.4898 64.4516 20.4422 64.4357 20.3867 64.4119C17.117 63.5238 13.8473 62.6278 10.5776 61.7239C10.4427 61.6842 10.2681 61.4701 10.2522 61.3195C10.0221 58.8455 9.81575 56.3715 9.59354 53.8499H14.5854C14.6727 54.8411 14.7679 55.8482 14.8473 56.8631C14.9187 57.7988 14.9107 57.7988 15.7917 58.0367C17.3709 58.4569 18.9582 58.8693 20.5375 59.2816L20.5216 59.2419C22.2517 58.782 23.9817 58.3301 25.7118 57.8384C25.8705 57.7909 26.0531 57.5371 26.0769 57.3627C26.18 56.6014 26.2356 55.8323 26.2991 55.0711C26.4022 53.842 26.5054 52.6129 26.6165 51.3284H20.5216L20.5375 51.2967C20.4978 51.2967 20.4502 51.2967 20.4105 51.2967H9.36339C9.2126 49.6553 9.06975 48.0297 8.91897 46.3566H20.4184C20.4581 46.3566 20.5057 46.3566 20.5454 46.3566L20.5295 46.3249H27.0609C27.2117 44.6201 27.3625 42.9549 27.5133 41.258H20.5216L20.5375 41.2263C20.4978 41.2263 20.4502 41.2263 20.4105 41.2263C16.498 41.2342 12.5855 41.2342 8.67295 41.2421C8.61739 41.2421 8.56184 41.2184 8.45867 41.1866C8.31582 39.569 8.16504 37.9514 8.02218 36.2863H20.4105C20.4502 36.2863 20.4978 36.2863 20.5375 36.2863L20.5216 36.2545H32.9654C32.8781 37.3647 32.7908 38.4113 32.7035 39.458Z" fill="white"/>
<path d="M7.01669 91.072C7.01669 90.1013 7.22669 89.238 7.64669 88.482C8.06669 87.7167 8.65002 87.124 9.39669 86.704C10.1527 86.2747 11.0067 86.06 11.9587 86.06C13.1254 86.06 14.124 86.368 14.9547 86.984C15.7854 87.6 16.3407 88.44 16.6207 89.504H13.9887C13.7927 89.0933 13.5127 88.7807 13.1487 88.566C12.794 88.3513 12.388 88.244 11.9307 88.244C11.1934 88.244 10.596 88.5007 10.1387 89.014C9.68135 89.5273 9.45269 90.2133 9.45269 91.072C9.45269 91.9307 9.68135 92.6167 10.1387 93.13C10.596 93.6433 11.1934 93.9 11.9307 93.9C12.388 93.9 12.794 93.7927 13.1487 93.578C13.5127 93.3633 13.7927 93.0507 13.9887 92.64H16.6207C16.3407 93.704 15.7854 94.544 14.9547 95.16C14.124 95.7667 13.1254 96.07 11.9587 96.07C11.0067 96.07 10.1527 95.86 9.39669 95.44C8.65002 95.0107 8.06669 94.418 7.64669 93.662C7.22669 92.906 7.01669 92.0427 7.01669 91.072ZM21.6428 96.098C20.9241 96.098 20.2801 95.9813 19.7108 95.748C19.1414 95.5147 18.6841 95.1693 18.3388 94.712C18.0028 94.2547 17.8254 93.704 17.8068 93.06H20.3548C20.3921 93.424 20.5181 93.704 20.7328 93.9C20.9474 94.0867 21.2274 94.18 21.5728 94.18C21.9274 94.18 22.2074 94.1007 22.4128 93.942C22.6181 93.774 22.7208 93.5453 22.7208 93.256C22.7208 93.0133 22.6368 92.8127 22.4688 92.654C22.3101 92.4953 22.1094 92.3647 21.8668 92.262C21.6334 92.1593 21.2974 92.0427 20.8588 91.912C20.2241 91.716 19.7061 91.52 19.3048 91.324C18.9034 91.128 18.5581 90.8387 18.2688 90.456C17.9794 90.0733 17.8348 89.574 17.8348 88.958C17.8348 88.0433 18.1661 87.3293 18.8288 86.816C19.4914 86.2933 20.3548 86.032 21.4188 86.032C22.5014 86.032 23.3741 86.2933 24.0368 86.816C24.6994 87.3293 25.0541 88.048 25.1008 88.972H22.5108C22.4921 88.6547 22.3754 88.4073 22.1608 88.23C21.9461 88.0433 21.6708 87.95 21.3347 87.95C21.0454 87.95 20.8121 88.0293 20.6348 88.188C20.4574 88.3373 20.3688 88.5567 20.3688 88.846C20.3688 89.1633 20.5181 89.4107 20.8167 89.588C21.1154 89.7653 21.5821 89.9567 22.2168 90.162C22.8514 90.3767 23.3648 90.582 23.7568 90.778C24.1581 90.974 24.5034 91.2587 24.7928 91.632C25.0821 92.0053 25.2268 92.486 25.2268 93.074C25.2268 93.634 25.0821 94.1427 24.7928 94.6C24.5128 95.0573 24.1021 95.4213 23.5608 95.692C23.0194 95.9627 22.3801 96.098 21.6428 96.098ZM30.256 96.098C29.5374 96.098 28.8934 95.9813 28.324 95.748C27.7547 95.5147 27.2974 95.1693 26.952 94.712C26.616 94.2547 26.4387 93.704 26.42 93.06H28.968C29.0054 93.424 29.1314 93.704 29.346 93.9C29.5607 94.0867 29.8407 94.18 30.186 94.18C30.5407 94.18 30.8207 94.1007 31.026 93.942C31.2314 93.774 31.334 93.5453 31.334 93.256C31.334 93.0133 31.25 92.8127 31.082 92.654C30.9234 92.4953 30.7227 92.3647 30.48 92.262C30.2467 92.1593 29.9107 92.0427 29.472 91.912C28.8374 91.716 28.3194 91.52 27.918 91.324C27.5167 91.128 27.1714 90.8387 26.882 90.456C26.5927 90.0733 26.448 89.574 26.448 88.958C26.448 88.0433 26.7794 87.3293 27.442 86.816C28.1047 86.2933 28.968 86.032 30.032 86.032C31.1147 86.032 31.9874 86.2933 32.65 86.816C33.3127 87.3293 33.6674 88.048 33.714 88.972H31.124C31.1054 88.6547 30.9887 88.4073 30.774 88.23C30.5594 88.0433 30.284 87.95 29.948 87.95C29.6587 87.95 29.4254 88.0293 29.248 88.188C29.0707 88.3373 28.982 88.5567 28.982 88.846C28.982 89.1633 29.1314 89.4107 29.43 89.588C29.7287 89.7653 30.1954 89.9567 30.83 90.162C31.4647 90.3767 31.978 90.582 32.37 90.778C32.7714 90.974 33.1167 91.2587 33.406 91.632C33.6954 92.0053 33.84 92.486 33.84 93.074C33.84 93.634 33.6954 94.1427 33.406 94.6C33.126 95.0573 32.7154 95.4213 32.174 95.692C31.6327 95.9627 30.9934 96.098 30.256 96.098Z" fill="white"/>
</svg>
