<svg width="79" height="100" viewBox="0 0 79 100" fill="none" xmlns="http://www.w3.org/2000/svg">
<path d="M17 28C32.0101 28 46.9899 28 62 28C62 43.0101 62 58.0203 62 73C47.0203 73 32.0101 73 17 73C17 57.9595 17 42.9797 17 28ZM57.26 51.8217C56.3484 50.181 55.1026 49.0567 53.3099 48.6617C52.0338 48.3579 50.7576 48.3579 49.4814 48.6313C45.3491 49.4821 43.5868 54.4652 46.2606 57.7772C47.2026 58.9318 48.4483 59.6307 49.7549 60.2383C50.9095 60.7853 52.0945 61.3018 53.2491 61.8791C54.0392 62.2741 54.3734 63.0034 54.2822 63.8845C54.1911 64.7657 53.5834 65.2519 52.8238 65.5253C51.1222 66.133 49.1472 65.5861 47.9926 64.158C47.7495 63.8542 47.5064 63.5199 47.2633 63.1857C46.1087 63.8542 44.9845 64.4922 43.8602 65.1607C44.5591 66.528 45.5314 67.6219 46.8683 68.3511C49.1472 69.5969 51.5476 69.7792 54.0088 69.1715C55.6192 68.7765 56.9865 67.9561 57.8373 66.4673C59.4173 63.6415 58.5057 60.1168 55.7103 58.3849C54.4645 57.6253 53.0668 57.1087 51.7603 56.4402C51.1222 56.106 50.4537 55.8022 49.9068 55.3768C48.9345 54.5868 49.1168 53.0068 50.2107 52.3991C51.2741 51.7914 52.763 52.156 53.5834 53.2194C53.7657 53.4321 53.8872 53.6752 54.0695 53.9183C55.1026 53.2194 56.1661 52.5206 57.26 51.8217ZM28.8501 65.6165C29.4578 66.923 30.339 67.9561 31.5847 68.6246C33.1951 69.5057 34.9575 69.6577 36.7502 69.3842C38.3606 69.1411 39.6975 68.4119 40.5787 66.9534C41.3079 65.738 41.5206 64.4011 41.5206 62.973C41.5206 58.3545 41.5206 53.736 41.5206 49.1175C41.5206 48.9959 41.5206 48.844 41.5206 48.6921C40.0925 48.6921 38.7252 48.6921 37.2971 48.6921C37.2971 48.8744 37.2971 49.0263 37.2971 49.2086C37.2971 53.7664 37.2971 58.2937 37.2971 62.8514C37.2971 63.2768 37.2667 63.7326 37.2059 64.158C37.0844 64.8569 36.7198 65.3734 36.0209 65.5861C34.7144 65.9811 33.6509 65.5861 32.8913 64.4618C32.709 64.158 32.5267 63.8542 32.314 63.5503C31.129 64.2492 30.0047 64.9176 28.8501 65.6165Z" fill="white"/>
<path d="M7.39909 86.172V92.864C7.39909 93.9 7.10509 94.698 6.51709 95.258C5.93843 95.818 5.15443 96.098 4.16509 96.098C3.12909 96.098 2.29843 95.804 1.67309 95.216C1.04776 94.628 0.735094 93.7927 0.735094 92.71H3.11509C3.11509 93.1207 3.19909 93.4333 3.36709 93.648C3.53509 93.8533 3.77776 93.956 4.09509 93.956C4.38443 93.956 4.60843 93.8627 4.76709 93.676C4.92576 93.4893 5.00509 93.2187 5.00509 92.864V86.172H7.39909ZM8.85684 92.08C8.85684 91.2773 9.00618 90.5727 9.30484 89.966C9.61284 89.3593 10.0282 88.8927 10.5508 88.566C11.0735 88.2393 11.6568 88.076 12.3008 88.076C12.8515 88.076 13.3322 88.188 13.7428 88.412C14.1628 88.636 14.4848 88.93 14.7088 89.294V88.188H17.1028V96H14.7088V94.894C14.4755 95.258 14.1488 95.552 13.7288 95.776C13.3182 96 12.8375 96.112 12.2868 96.112C11.6522 96.112 11.0735 95.9487 10.5508 95.622C10.0282 95.286 9.61284 94.8147 9.30484 94.208C9.00618 93.592 8.85684 92.8827 8.85684 92.08ZM14.7088 92.094C14.7088 91.4967 14.5408 91.0253 14.2048 90.68C13.8782 90.3347 13.4768 90.162 13.0008 90.162C12.5248 90.162 12.1188 90.3347 11.7828 90.68C11.4562 91.016 11.2928 91.4827 11.2928 92.08C11.2928 92.6773 11.4562 93.1533 11.7828 93.508C12.1188 93.8533 12.5248 94.026 13.0008 94.026C13.4768 94.026 13.8782 93.8533 14.2048 93.508C14.5408 93.1627 14.7088 92.6913 14.7088 92.094ZM22.3488 93.76L24.0428 88.188H26.5908L23.8188 96H20.8648L18.0928 88.188H20.6548L22.3488 93.76ZM27.1225 92.08C27.1225 91.2773 27.2718 90.5727 27.5705 89.966C27.8785 89.3593 28.2938 88.8927 28.8165 88.566C29.3391 88.2393 29.9225 88.076 30.5665 88.076C31.1171 88.076 31.5978 88.188 32.0085 88.412C32.4285 88.636 32.7505 88.93 32.9745 89.294V88.188H35.3685V96H32.9745V94.894C32.7411 95.258 32.4145 95.552 31.9945 95.776C31.5838 96 31.1031 96.112 30.5525 96.112C29.9178 96.112 29.3391 95.9487 28.8165 95.622C28.2938 95.286 27.8785 94.8147 27.5705 94.208C27.2718 93.592 27.1225 92.8827 27.1225 92.08ZM32.9745 92.094C32.9745 91.4967 32.8065 91.0253 32.4705 90.68C32.1438 90.3347 31.7425 90.162 31.2665 90.162C30.7905 90.162 30.3845 90.3347 30.0485 90.68C29.7218 91.016 29.5585 91.4827 29.5585 92.08C29.5585 92.6773 29.7218 93.1533 30.0485 93.508C30.3845 93.8533 30.7905 94.026 31.2665 94.026C31.7425 94.026 32.1438 93.8533 32.4705 93.508C32.8065 93.1627 32.9745 92.6913 32.9745 92.094ZM40.6564 96.098C39.9378 96.098 39.2938 95.9813 38.7244 95.748C38.1551 95.5147 37.6978 95.1693 37.3524 94.712C37.0164 94.2547 36.8391 93.704 36.8204 93.06H39.3684C39.4058 93.424 39.5318 93.704 39.7464 93.9C39.9611 94.0867 40.2411 94.18 40.5864 94.18C40.9411 94.18 41.2211 94.1007 41.4264 93.942C41.6318 93.774 41.7344 93.5453 41.7344 93.256C41.7344 93.0133 41.6504 92.8127 41.4824 92.654C41.3238 92.4953 41.1231 92.3647 40.8804 92.262C40.6471 92.1593 40.3111 92.0427 39.8724 91.912C39.2378 91.716 38.7198 91.52 38.3184 91.324C37.9171 91.128 37.5718 90.8387 37.2824 90.456C36.9931 90.0733 36.8484 89.574 36.8484 88.958C36.8484 88.0433 37.1798 87.3293 37.8424 86.816C38.5051 86.2933 39.3684 86.032 40.4324 86.032C41.5151 86.032 42.3878 86.2933 43.0504 86.816C43.7131 87.3293 44.0678 88.048 44.1144 88.972H41.5244C41.5058 88.6547 41.3891 88.4073 41.1744 88.23C40.9598 88.0433 40.6844 87.95 40.3484 87.95C40.0591 87.95 39.8258 88.0293 39.6484 88.188C39.4711 88.3373 39.3824 88.5567 39.3824 88.846C39.3824 89.1633 39.5318 89.4107 39.8304 89.588C40.1291 89.7653 40.5958 89.9567 41.2304 90.162C41.8651 90.3767 42.3784 90.582 42.7704 90.778C43.1718 90.974 43.5171 91.2587 43.8064 91.632C44.0958 92.0053 44.2404 92.486 44.2404 93.074C44.2404 93.634 44.0958 94.1427 43.8064 94.6C43.5264 95.0573 43.1158 95.4213 42.5744 95.692C42.0331 95.9627 41.3938 96.098 40.6564 96.098ZM45.2377 92.094C45.2377 91.282 45.401 90.5727 45.7277 89.966C46.0637 89.3593 46.5257 88.8927 47.1137 88.566C47.711 88.2393 48.3924 88.076 49.1577 88.076C50.1377 88.076 50.9544 88.3327 51.6077 88.846C52.2704 89.3593 52.7044 90.0827 52.9097 91.016H50.3617C50.147 90.4187 49.7317 90.12 49.1157 90.12C48.677 90.12 48.327 90.2927 48.0657 90.638C47.8044 90.974 47.6737 91.4593 47.6737 92.094C47.6737 92.7287 47.8044 93.2187 48.0657 93.564C48.327 93.9 48.677 94.068 49.1157 94.068C49.7317 94.068 50.147 93.7693 50.3617 93.172H52.9097C52.7044 94.0867 52.2704 94.8053 51.6077 95.328C50.945 95.8507 50.1284 96.112 49.1577 96.112C48.3924 96.112 47.711 95.9487 47.1137 95.622C46.5257 95.2953 46.0637 94.8287 45.7277 94.222C45.401 93.6153 45.2377 92.906 45.2377 92.094ZM56.5843 89.49C56.8643 89.0607 57.2143 88.7247 57.6343 88.482C58.0543 88.23 58.5209 88.104 59.0343 88.104V90.638H58.3763C57.7789 90.638 57.3309 90.7687 57.0323 91.03C56.7336 91.282 56.5843 91.73 56.5843 92.374V96H54.1903V88.188H56.5843V89.49ZM61.3825 87.376C60.9625 87.376 60.6172 87.2547 60.3465 87.012C60.0852 86.76 59.9545 86.452 59.9545 86.088C59.9545 85.7147 60.0852 85.4067 60.3465 85.164C60.6172 84.912 60.9625 84.786 61.3825 84.786C61.7932 84.786 62.1292 84.912 62.3905 85.164C62.6612 85.4067 62.7965 85.7147 62.7965 86.088C62.7965 86.452 62.6612 86.76 62.3905 87.012C62.1292 87.2547 61.7932 87.376 61.3825 87.376ZM62.5725 88.188V96H60.1785V88.188H62.5725ZM66.7015 89.294C66.9348 88.93 67.2568 88.636 67.6675 88.412C68.0781 88.188 68.5588 88.076 69.1095 88.076C69.7535 88.076 70.3368 88.2393 70.8595 88.566C71.3821 88.8927 71.7928 89.3593 72.0915 89.966C72.3995 90.5727 72.5535 91.2773 72.5535 92.08C72.5535 92.8827 72.3995 93.592 72.0915 94.208C71.7928 94.8147 71.3821 95.286 70.8595 95.622C70.3368 95.9487 69.7535 96.112 69.1095 96.112C68.5681 96.112 68.0875 96 67.6675 95.776C67.2568 95.552 66.9348 95.2627 66.7015 94.908V99.724H64.3075V88.188H66.7015V89.294ZM70.1175 92.08C70.1175 91.4827 69.9495 91.016 69.6135 90.68C69.2868 90.3347 68.8808 90.162 68.3955 90.162C67.9195 90.162 67.5135 90.3347 67.1775 90.68C66.8508 91.0253 66.6875 91.4967 66.6875 92.094C66.6875 92.6913 66.8508 93.1627 67.1775 93.508C67.5135 93.8533 67.9195 94.026 68.3955 94.026C68.8715 94.026 69.2775 93.8533 69.6135 93.508C69.9495 93.1533 70.1175 92.6773 70.1175 92.08ZM78.1634 93.97V96H76.9454C76.0774 96 75.4007 95.79 74.9154 95.37C74.4301 94.9407 74.1874 94.2453 74.1874 93.284V90.176H73.2354V88.188H74.1874V86.284H76.5814V88.188H78.1494V90.176H76.5814V93.312C76.5814 93.5453 76.6374 93.7133 76.7494 93.816C76.8614 93.9187 77.0481 93.97 77.3094 93.97H78.1634Z" fill="white"/>
</svg>
