<svg width="61" height="100" viewBox="0 0 61 100" fill="none" xmlns="http://www.w3.org/2000/svg">
<g clip-path="url(#clip0_382_3852)">
<path d="M13.925 12.8496V43.2246C10.25 39.1746 8 33.8496 8 27.9996C8 22.1496 10.25 16.8246 13.925 12.8496Z" fill="white"/>
<path d="M16.325 16.1504L29.3 42.1754H16.325V16.1504Z" fill="white"/>
<path d="M30.5 39.2502L17.75 13.8252H43.25L30.5 39.2502Z" fill="white"/>
<path d="M30.5 5.5C36.35 5.5 41.675 7.75 45.65 11.425H15.35C19.325 7.75 24.65 5.5 30.5 5.5Z" fill="white"/>
<path d="M44.675 42.1754H31.7L44.675 16.1504V42.1754Z" fill="white"/>
<path d="M45.65 44.5752C41.675 48.2502 36.35 50.5002 30.5 50.5002C24.65 50.5002 19.325 48.2502 15.35 44.5752H45.65Z" fill="white"/>
<path d="M47.075 43.1496V12.8496C50.75 16.8246 53 22.1496 53 27.9996C53 33.8496 50.75 39.1746 47.075 43.1496Z" fill="white"/>
<path d="M16.325 16.1504L29.3 42.1754H16.325V16.1504Z" fill="white"/>
<path d="M30.5 39.2502L17.75 13.8252H43.25L30.5 39.2502Z" fill="white"/>
<path d="M31.7 42.1754L44.675 16.1504V42.1754H31.7Z" fill="white"/>
<path d="M17.75 13.8252H43.25L30.5 39.2502L17.75 13.8252Z" fill="white"/>
</g>
<path d="M12.29 63.672V73.5H9.89599V67.606L7.69799 73.5H5.76599L3.55399 67.592V73.5H1.15999V63.672H3.98799L6.74599 70.476L9.47599 63.672H12.29ZM13.5356 69.58C13.5356 68.7773 13.6849 68.0727 13.9836 67.466C14.2916 66.8593 14.7069 66.3927 15.2296 66.066C15.7522 65.7393 16.3356 65.576 16.9796 65.576C17.5302 65.576 18.0109 65.688 18.4216 65.912C18.8416 66.136 19.1636 66.43 19.3876 66.794V65.688H21.7816V73.5H19.3876V72.394C19.1542 72.758 18.8276 73.052 18.4076 73.276C17.9969 73.5 17.5162 73.612 16.9656 73.612C16.3309 73.612 15.7522 73.4487 15.2296 73.122C14.7069 72.786 14.2916 72.3147 13.9836 71.708C13.6849 71.092 13.5356 70.3827 13.5356 69.58ZM19.3876 69.594C19.3876 68.9967 19.2196 68.5253 18.8836 68.18C18.5569 67.8347 18.1556 67.662 17.6796 67.662C17.2036 67.662 16.7976 67.8347 16.4616 68.18C16.1349 68.516 15.9716 68.9827 15.9716 69.58C15.9716 70.1773 16.1349 70.6533 16.4616 71.008C16.7976 71.3533 17.2036 71.526 17.6796 71.526C18.1556 71.526 18.5569 71.3533 18.8836 71.008C19.2196 70.6627 19.3876 70.1913 19.3876 69.594ZM27.8675 71.47V73.5H26.6495C25.7815 73.5 25.1048 73.29 24.6195 72.87C24.1342 72.4407 23.8915 71.7453 23.8915 70.784V67.676H22.9395V65.688H23.8915V63.784H26.2855V65.688H27.8535V67.676H26.2855V70.812C26.2855 71.0453 26.3415 71.2133 26.4535 71.316C26.5655 71.4187 26.7522 71.47 27.0135 71.47H27.8675ZM36.565 69.468C36.565 69.692 36.551 69.9253 36.523 70.168H31.105C31.1423 70.6533 31.2963 71.0267 31.567 71.288C31.847 71.54 32.1877 71.666 32.589 71.666C33.1863 71.666 33.6017 71.414 33.835 70.91H36.383C36.2523 71.4233 36.0143 71.8853 35.669 72.296C35.333 72.7067 34.9083 73.0287 34.395 73.262C33.8817 73.4953 33.3077 73.612 32.673 73.612C31.9077 73.612 31.2263 73.4487 30.629 73.122C30.0317 72.7953 29.565 72.3287 29.229 71.722C28.893 71.1153 28.725 70.406 28.725 69.594C28.725 68.782 28.8883 68.0727 29.215 67.466C29.551 66.8593 30.0177 66.3927 30.615 66.066C31.2123 65.7393 31.8983 65.576 32.673 65.576C33.429 65.576 34.101 65.7347 34.689 66.052C35.277 66.3693 35.7343 66.822 36.061 67.41C36.397 67.998 36.565 68.684 36.565 69.468ZM34.115 68.838C34.115 68.4273 33.975 68.1007 33.695 67.858C33.415 67.6153 33.065 67.494 32.645 67.494C32.2437 67.494 31.903 67.6107 31.623 67.844C31.3523 68.0773 31.1843 68.4087 31.119 68.838H34.115ZM40.222 66.99C40.502 66.5607 40.852 66.2247 41.272 65.982C41.692 65.73 42.1586 65.604 42.672 65.604V68.138H42.014C41.4166 68.138 40.9686 68.2687 40.67 68.53C40.3713 68.782 40.222 69.23 40.222 69.874V73.5H37.828V65.688H40.222V66.99ZM45.0202 64.876C44.6002 64.876 44.2549 64.7547 43.9842 64.512C43.7229 64.26 43.5922 63.952 43.5922 63.588C43.5922 63.2147 43.7229 62.9067 43.9842 62.664C44.2549 62.412 44.6002 62.286 45.0202 62.286C45.4309 62.286 45.7669 62.412 46.0282 62.664C46.2989 62.9067 46.4342 63.2147 46.4342 63.588C46.4342 63.952 46.2989 64.26 46.0282 64.512C45.7669 64.7547 45.4309 64.876 45.0202 64.876ZM46.2102 65.688V73.5H43.8162V65.688H46.2102ZM47.4691 69.58C47.4691 68.7773 47.6185 68.0727 47.9171 67.466C48.2251 66.8593 48.6405 66.3927 49.1631 66.066C49.6858 65.7393 50.2691 65.576 50.9131 65.576C51.4638 65.576 51.9445 65.688 52.3551 65.912C52.7751 66.136 53.0971 66.43 53.3211 66.794V65.688H55.7151V73.5H53.3211V72.394C53.0878 72.758 52.7611 73.052 52.3411 73.276C51.9305 73.5 51.4498 73.612 50.8991 73.612C50.2645 73.612 49.6858 73.4487 49.1631 73.122C48.6405 72.786 48.2251 72.3147 47.9171 71.708C47.6185 71.092 47.4691 70.3827 47.4691 69.58ZM53.3211 69.594C53.3211 68.9967 53.1531 68.5253 52.8171 68.18C52.4905 67.8347 52.0891 67.662 51.6131 67.662C51.1371 67.662 50.7311 67.8347 50.3951 68.18C50.0685 68.516 49.9051 68.9827 49.9051 69.58C49.9051 70.1773 50.0685 70.6533 50.3951 71.008C50.7311 71.3533 51.1371 71.526 51.6131 71.526C52.0891 71.526 52.4905 71.3533 52.8171 71.008C53.1531 70.6627 53.3211 70.1913 53.3211 69.594ZM59.8411 63.14V73.5H57.4471V63.14H59.8411ZM6.392 86.58C6.392 85.7773 6.54133 85.0727 6.84 84.466C7.148 83.8593 7.56333 83.3927 8.086 83.066C8.60867 82.7393 9.192 82.576 9.836 82.576C10.3493 82.576 10.816 82.6833 11.236 82.898C11.6653 83.1127 12.0013 83.402 12.244 83.766V80.14H14.638V90.5H12.244V89.38C12.02 89.7533 11.698 90.052 11.278 90.276C10.8673 90.5 10.3867 90.612 9.836 90.612C9.192 90.612 8.60867 90.4487 8.086 90.122C7.56333 89.786 7.148 89.3147 6.84 88.708C6.54133 88.092 6.392 87.3827 6.392 86.58ZM12.244 86.594C12.244 85.9967 12.076 85.5253 11.74 85.18C11.4133 84.8347 11.012 84.662 10.536 84.662C10.06 84.662 9.654 84.8347 9.318 85.18C8.99133 85.516 8.828 85.9827 8.828 86.58C8.828 87.1773 8.99133 87.6533 9.318 88.008C9.654 88.3533 10.06 88.526 10.536 88.526C11.012 88.526 11.4133 88.3533 11.74 88.008C12.076 87.6627 12.244 87.1913 12.244 86.594ZM23.734 86.468C23.734 86.692 23.72 86.9253 23.692 87.168H18.274C18.3113 87.6533 18.4653 88.0267 18.736 88.288C19.016 88.54 19.3566 88.666 19.758 88.666C20.3553 88.666 20.7706 88.414 21.004 87.91H23.552C23.4213 88.4233 23.1833 88.8853 22.838 89.296C22.502 89.7067 22.0773 90.0287 21.564 90.262C21.0506 90.4953 20.4766 90.612 19.842 90.612C19.0766 90.612 18.3953 90.4487 17.798 90.122C17.2006 89.7953 16.734 89.3287 16.398 88.722C16.062 88.1153 15.894 87.406 15.894 86.594C15.894 85.782 16.0573 85.0727 16.384 84.466C16.72 83.8593 17.1866 83.3927 17.784 83.066C18.3813 82.7393 19.0673 82.576 19.842 82.576C20.598 82.576 21.27 82.7347 21.858 83.052C22.446 83.3693 22.9033 83.822 23.23 84.41C23.566 84.998 23.734 85.684 23.734 86.468ZM21.284 85.838C21.284 85.4273 21.144 85.1007 20.864 84.858C20.584 84.6153 20.234 84.494 19.814 84.494C19.4126 84.494 19.072 84.6107 18.792 84.844C18.5213 85.0773 18.3533 85.4087 18.288 85.838H21.284ZM28.1749 90.612C27.4936 90.612 26.8869 90.4953 26.3549 90.262C25.8229 90.0287 25.4029 89.7113 25.0949 89.31C24.7869 88.8993 24.6142 88.442 24.5769 87.938H26.9429C26.9709 88.2087 27.0969 88.428 27.3209 88.596C27.5449 88.764 27.8202 88.848 28.1469 88.848C28.4456 88.848 28.6742 88.792 28.8329 88.68C29.0009 88.5587 29.0849 88.4047 29.0849 88.218C29.0849 87.994 28.9682 87.8307 28.7349 87.728C28.5016 87.616 28.1236 87.4947 27.6009 87.364C27.0409 87.2333 26.5742 87.098 26.2009 86.958C25.8276 86.8087 25.5056 86.58 25.2349 86.272C24.9642 85.9547 24.8289 85.53 24.8289 84.998C24.8289 84.55 24.9502 84.144 25.1929 83.78C25.4449 83.4067 25.8089 83.1127 26.2849 82.898C26.7702 82.6833 27.3442 82.576 28.0069 82.576C28.9869 82.576 29.7569 82.8187 30.3169 83.304C30.8862 83.7893 31.2129 84.4333 31.2969 85.236H29.0849C29.0476 84.9653 28.9262 84.7507 28.7209 84.592C28.5249 84.4333 28.2636 84.354 27.9369 84.354C27.6569 84.354 27.4422 84.41 27.2929 84.522C27.1436 84.6247 27.0689 84.7693 27.0689 84.956C27.0689 85.18 27.1856 85.348 27.4189 85.46C27.6616 85.572 28.0349 85.684 28.5389 85.796C29.1176 85.9453 29.5889 86.0947 29.9529 86.244C30.3169 86.384 30.6342 86.6173 30.9049 86.944C31.1849 87.2613 31.3296 87.6907 31.3389 88.232C31.3389 88.6893 31.2082 89.1 30.9469 89.464C30.6949 89.8187 30.3262 90.0987 29.8409 90.304C29.3649 90.5093 28.8096 90.612 28.1749 90.612ZM34.0075 81.876C33.5875 81.876 33.2422 81.7547 32.9715 81.512C32.7102 81.26 32.5795 80.952 32.5795 80.588C32.5795 80.2147 32.7102 79.9067 32.9715 79.664C33.2422 79.412 33.5875 79.286 34.0075 79.286C34.4182 79.286 34.7542 79.412 35.0155 79.664C35.2862 79.9067 35.4215 80.2147 35.4215 80.588C35.4215 80.952 35.2862 81.26 35.0155 81.512C34.7542 81.7547 34.4182 81.876 34.0075 81.876ZM35.1975 82.688V90.5H32.8035V82.688H35.1975ZM39.9005 82.576C40.4511 82.576 40.9318 82.688 41.3425 82.912C41.7625 83.136 42.0845 83.43 42.3085 83.794V82.688H44.7025V90.486C44.7025 91.2047 44.5578 91.8533 44.2685 92.432C43.9885 93.02 43.5545 93.4867 42.9665 93.832C42.3878 94.1773 41.6645 94.35 40.7965 94.35C39.6391 94.35 38.7011 94.0747 37.9825 93.524C37.2638 92.9827 36.8531 92.2453 36.7505 91.312H39.1165C39.1911 91.6107 39.3685 91.844 39.6485 92.012C39.9285 92.1893 40.2738 92.278 40.6845 92.278C41.1791 92.278 41.5711 92.1333 41.8605 91.844C42.1591 91.564 42.3085 91.1113 42.3085 90.486V89.38C42.0751 89.744 41.7531 90.0427 41.3425 90.276C40.9318 90.5 40.4511 90.612 39.9005 90.612C39.2565 90.612 38.6731 90.4487 38.1505 90.122C37.6278 89.786 37.2125 89.3147 36.9045 88.708C36.6058 88.092 36.4565 87.3827 36.4565 86.58C36.4565 85.7773 36.6058 85.0727 36.9045 84.466C37.2125 83.8593 37.6278 83.3927 38.1505 83.066C38.6731 82.7393 39.2565 82.576 39.9005 82.576ZM42.3085 86.594C42.3085 85.9967 42.1405 85.5253 41.8045 85.18C41.4778 84.8347 41.0765 84.662 40.6005 84.662C40.1245 84.662 39.7185 84.8347 39.3825 85.18C39.0558 85.516 38.8925 85.9827 38.8925 86.58C38.8925 87.1773 39.0558 87.6533 39.3825 88.008C39.7185 88.3533 40.1245 88.526 40.6005 88.526C41.0765 88.526 41.4778 88.3533 41.8045 88.008C42.1405 87.6627 42.3085 87.1913 42.3085 86.594ZM51.1944 82.604C52.1091 82.604 52.8371 82.9027 53.3784 83.5C53.9291 84.088 54.2044 84.9 54.2044 85.936V90.5H51.8244V86.258C51.8244 85.7353 51.6891 85.3293 51.4184 85.04C51.1477 84.7507 50.7837 84.606 50.3264 84.606C49.8691 84.606 49.5051 84.7507 49.2344 85.04C48.9637 85.3293 48.8284 85.7353 48.8284 86.258V90.5H46.4344V82.688H48.8284V83.724C49.0711 83.3787 49.3977 83.108 49.8084 82.912C50.2191 82.7067 50.6811 82.604 51.1944 82.604Z" fill="white"/>
<defs>
<clipPath id="clip0_382_3852">
<rect width="45" height="45" fill="white" transform="translate(8 5.5)"/>
</clipPath>
</defs>
</svg>
