<svg width="49" height="100" viewBox="0 0 49 100" fill="none" xmlns="http://www.w3.org/2000/svg">
<g clip-path="url(#clip0_382_3855)">
<path fill-rule="evenodd" clip-rule="evenodd" d="M47.0521 39.8229L42.7917 45.7812L38.5312 39.8229H40.8542C40.6771 35.3958 37.0208 31.8542 32.5521 31.8542C28.7812 31.8542 25.5833 34.3854 24.5729 37.8333C23.3437 37.4375 22.0729 37.1875 20.7812 37.0729C20.9271 36.5208 21.1146 35.9687 21.3437 35.4375C21.9583 33.9896 22.8333 32.6875 23.9479 31.5729C25.0625 30.4583 26.3646 29.5729 27.8125 28.9687C29.3125 28.3229 30.9062 28 32.5521 28C34.1979 28 35.7917 28.3229 37.2917 28.9583C38.7396 29.5729 40.0417 30.4479 41.1562 31.5625C42.2708 32.6771 43.1458 33.9792 43.7604 35.4271C44.3542 36.8229 44.6771 38.3021 44.7083 39.8229H47.0521Z" fill="white"/>
<path fill-rule="evenodd" clip-rule="evenodd" d="M41.0938 72.9997V70.4372H26.4062C26.5104 70.3851 26.6146 70.3434 26.7188 70.2913C28.3125 69.5309 29.7812 68.5413 31.0938 67.333C31.2708 67.1663 31.4375 67.0101 31.5937 66.8538C31.7708 66.6768 31.9583 66.4893 32.1354 66.2913C32.3438 66.0622 32.5521 65.8226 32.7396 65.583H41.0938V63.0205L48.0729 68.0101L41.0938 72.9997Z" fill="white"/>
<path fill-rule="evenodd" clip-rule="evenodd" d="M35.6771 54.4899C35.6771 56.7087 35.2396 58.8649 34.3854 60.8962C33.6563 62.6253 32.6354 64.2087 31.3646 65.5941C31.1979 65.7712 31.0313 65.9482 30.8646 66.1253C30.7083 66.2816 30.5521 66.4274 30.3958 66.5837C29.1667 67.7191 27.7917 68.6462 26.2917 69.3649C26.0833 69.4691 25.8646 69.5628 25.6458 69.6566C25.6354 69.6566 25.6354 69.667 25.625 69.667C24.375 70.1982 23.0313 70.4587 21.6667 70.4587H0V65.6149H20.1146C26.1979 65.6149 31.1875 60.7503 31.2708 54.667C31.2708 54.6149 31.2708 54.5628 31.2708 54.5107C31.2708 47.8649 25.875 42.4691 19.2292 42.4691C12.5833 42.4482 7.1875 47.8337 7.1875 54.4899H9.97917L4.98958 61.4691L0 54.4899H2.79167C2.79167 52.2712 3.22917 50.1149 4.08333 48.0837C4.91667 46.1253 6.09375 44.3649 7.60417 42.8545C9.11459 41.3441 10.875 40.1566 12.8333 39.3337C14.8646 38.4795 17.0208 38.042 19.2396 38.042C19.6875 38.042 20.125 38.0628 20.5625 38.0941C21.8542 38.1982 23.1146 38.4482 24.3438 38.8545C24.7813 39.0003 25.2083 39.1566 25.6354 39.3441C27.5938 40.1774 29.3542 41.3545 30.8646 42.8649C32.375 44.3753 33.5625 46.1357 34.3854 48.0941C35.2396 50.1149 35.6771 52.2712 35.6771 54.4899Z" fill="white"/>
</g>
<path d="M4.79967 96.098C4.081 96.098 3.437 95.9813 2.86767 95.748C2.29834 95.5147 1.841 95.1693 1.49567 94.712C1.15967 94.2547 0.982338 93.704 0.963671 93.06H3.51167C3.549 93.424 3.675 93.704 3.88967 93.9C4.10434 94.0867 4.38434 94.18 4.72967 94.18C5.08434 94.18 5.36434 94.1007 5.56967 93.942C5.775 93.774 5.87767 93.5453 5.87767 93.256C5.87767 93.0133 5.79367 92.8127 5.62567 92.654C5.467 92.4953 5.26634 92.3647 5.02367 92.262C4.79034 92.1593 4.45434 92.0427 4.01567 91.912C3.381 91.716 2.863 91.52 2.46167 91.324C2.06034 91.128 1.715 90.8387 1.42567 90.456C1.13634 90.0733 0.991671 89.574 0.991671 88.958C0.991671 88.0433 1.323 87.3293 1.98567 86.816C2.64834 86.2933 3.51167 86.032 4.57567 86.032C5.65834 86.032 6.531 86.2933 7.19367 86.816C7.85634 87.3293 8.21101 88.048 8.25767 88.972H5.66767C5.649 88.6547 5.53234 88.4073 5.31767 88.23C5.103 88.0433 4.82767 87.95 4.49167 87.95C4.20234 87.95 3.969 88.0293 3.79167 88.188C3.61434 88.3373 3.52567 88.5567 3.52567 88.846C3.52567 89.1633 3.675 89.4107 3.97367 89.588C4.27234 89.7653 4.739 89.9567 5.37367 90.162C6.00834 90.3767 6.52167 90.582 6.91367 90.778C7.31501 90.974 7.66034 91.2587 7.94967 91.632C8.23901 92.0053 8.38367 92.486 8.38367 93.074C8.38367 93.634 8.23901 94.1427 7.94967 94.6C7.66967 95.0573 7.25901 95.4213 6.71767 95.692C6.17634 95.9627 5.537 96.098 4.79967 96.098ZM9.38095 92.094C9.38095 91.282 9.54429 90.5727 9.87095 89.966C10.207 89.3593 10.669 88.8927 11.257 88.566C11.8543 88.2393 12.5356 88.076 13.301 88.076C14.281 88.076 15.0976 88.3327 15.751 88.846C16.4136 89.3593 16.8476 90.0827 17.053 91.016H14.505C14.2903 90.4187 13.875 90.12 13.259 90.12C12.8203 90.12 12.4703 90.2927 12.209 90.638C11.9476 90.974 11.817 91.4593 11.817 92.094C11.817 92.7287 11.9476 93.2187 12.209 93.564C12.4703 93.9 12.8203 94.068 13.259 94.068C13.875 94.068 14.2903 93.7693 14.505 93.172H17.053C16.8476 94.0867 16.4136 94.8053 15.751 95.328C15.0883 95.8507 14.2716 96.112 13.301 96.112C12.5356 96.112 11.8543 95.9487 11.257 95.622C10.669 95.2953 10.207 94.8287 9.87095 94.222C9.54429 93.6153 9.38095 92.906 9.38095 92.094ZM20.7275 89.49C21.0075 89.0607 21.3575 88.7247 21.7775 88.482C22.1975 88.23 22.6642 88.104 23.1775 88.104V90.638H22.5195C21.9222 90.638 21.4742 90.7687 21.1755 91.03C20.8768 91.282 20.7275 91.73 20.7275 92.374V96H18.3335V88.188H20.7275V89.49ZM32.0358 88.188V96H29.6418V94.936C29.3991 95.2813 29.0678 95.5613 28.6478 95.776C28.2371 95.9813 27.7798 96.084 27.2758 96.084C26.6785 96.084 26.1511 95.9533 25.6938 95.692C25.2365 95.4213 24.8818 95.034 24.6298 94.53C24.3778 94.026 24.2518 93.4333 24.2518 92.752V88.188H26.6318V92.43C26.6318 92.9527 26.7671 93.3587 27.0378 93.648C27.3085 93.9373 27.6725 94.082 28.1298 94.082C28.5965 94.082 28.9651 93.9373 29.2358 93.648C29.5065 93.3587 29.6418 92.9527 29.6418 92.43V88.188H32.0358ZM43.7234 88.104C44.6941 88.104 45.4641 88.398 46.0334 88.986C46.6121 89.574 46.9014 90.3907 46.9014 91.436V96H44.5214V91.758C44.5214 91.254 44.3861 90.8667 44.1154 90.596C43.8541 90.316 43.4901 90.176 43.0234 90.176C42.5567 90.176 42.1881 90.316 41.9174 90.596C41.6561 90.8667 41.5254 91.254 41.5254 91.758V96H39.1454V91.758C39.1454 91.254 39.0101 90.8667 38.7394 90.596C38.4781 90.316 38.1141 90.176 37.6474 90.176C37.1807 90.176 36.8121 90.316 36.5414 90.596C36.2801 90.8667 36.1494 91.254 36.1494 91.758V96H33.7554V88.188H36.1494V89.168C36.3921 88.8413 36.7094 88.5847 37.1014 88.398C37.4934 88.202 37.9367 88.104 38.4314 88.104C39.0194 88.104 39.5421 88.23 39.9994 88.482C40.4661 88.734 40.8301 89.0933 41.0914 89.56C41.3621 89.1307 41.7307 88.7807 42.1974 88.51C42.6641 88.2393 43.1727 88.104 43.7234 88.104Z" fill="white"/>
<defs>
<clipPath id="clip0_382_3855">
<rect width="48.0833" height="45" fill="white" transform="translate(0 28)"/>
</clipPath>
</defs>
</svg>
