<svg width="62" height="100" viewBox="0 0 62 100" fill="none" xmlns="http://www.w3.org/2000/svg">
<path d="M15.7369 57.3789L20.1855 28.8724C20.3389 27.9009 21.6428 27.6708 22.103 28.5401L26.8839 37.4883L15.7369 57.3789ZM47.3625 64.3074L43.1185 38.0508C42.9907 37.2326 41.968 36.9003 41.38 37.4883L14.6376 64.3074L29.4405 72.6165C30.3609 73.1278 31.5114 73.1278 32.4318 72.6165L47.3625 64.3074ZM35.3463 41.4L31.9204 34.8805C31.5369 34.1391 30.4887 34.1391 30.1052 34.8805L15.0466 61.7252L35.3463 41.4Z" fill="white"/>
<path d="M7.34706 86.172V88.09H3.34305V90.162H6.33906V92.024H3.34305V96H0.949055V86.172H7.34706ZM9.8093 87.376C9.3893 87.376 9.04397 87.2547 8.7733 87.012C8.51197 86.76 8.3813 86.452 8.3813 86.088C8.3813 85.7147 8.51197 85.4067 8.7733 85.164C9.04397 84.912 9.3893 84.786 9.8093 84.786C10.22 84.786 10.556 84.912 10.8173 85.164C11.088 85.4067 11.2233 85.7147 11.2233 86.088C11.2233 86.452 11.088 86.76 10.8173 87.012C10.556 87.2547 10.22 87.376 9.8093 87.376ZM10.9993 88.188V96H8.6053V88.188H10.9993ZM15.1282 89.49C15.4082 89.0607 15.7582 88.7247 16.1782 88.482C16.5982 88.23 17.0649 88.104 17.5782 88.104V90.638H16.9202C16.3229 90.638 15.8749 90.7687 15.5762 91.03C15.2775 91.282 15.1282 91.73 15.1282 92.374V96H12.7342V88.188H15.1282V89.49ZM26.0865 91.968C26.0865 92.192 26.0725 92.4253 26.0445 92.668H20.6265C20.6638 93.1533 20.8178 93.5267 21.0885 93.788C21.3685 94.04 21.7092 94.166 22.1105 94.166C22.7078 94.166 23.1232 93.914 23.3565 93.41H25.9045C25.7738 93.9233 25.5358 94.3853 25.1905 94.796C24.8545 95.2067 24.4298 95.5287 23.9165 95.762C23.4032 95.9953 22.8292 96.112 22.1945 96.112C21.4292 96.112 20.7478 95.9487 20.1505 95.622C19.5532 95.2953 19.0865 94.8287 18.7505 94.222C18.4145 93.6153 18.2465 92.906 18.2465 92.094C18.2465 91.282 18.4098 90.5727 18.7365 89.966C19.0725 89.3593 19.5392 88.8927 20.1365 88.566C20.7338 88.2393 21.4198 88.076 22.1945 88.076C22.9505 88.076 23.6225 88.2347 24.2105 88.552C24.7985 88.8693 25.2558 89.322 25.5825 89.91C25.9185 90.498 26.0865 91.184 26.0865 91.968ZM23.6365 91.338C23.6365 90.9273 23.4965 90.6007 23.2165 90.358C22.9365 90.1153 22.5865 89.994 22.1665 89.994C21.7652 89.994 21.4245 90.1107 21.1445 90.344C20.8738 90.5773 20.7058 90.9087 20.6405 91.338H23.6365ZM29.7434 89.294C29.9674 88.93 30.2894 88.636 30.7094 88.412C31.1294 88.188 31.6101 88.076 32.1514 88.076C32.7954 88.076 33.3788 88.2393 33.9014 88.566C34.4241 88.8927 34.8348 89.3593 35.1334 89.966C35.4414 90.5727 35.5954 91.2773 35.5954 92.08C35.5954 92.8827 35.4414 93.592 35.1334 94.208C34.8348 94.8147 34.4241 95.286 33.9014 95.622C33.3788 95.9487 32.7954 96.112 32.1514 96.112C31.6008 96.112 31.1201 96.0047 30.7094 95.79C30.2988 95.566 29.9768 95.272 29.7434 94.908V96H27.3494V85.64H29.7434V89.294ZM33.1594 92.08C33.1594 91.4827 32.9914 91.016 32.6554 90.68C32.3288 90.3347 31.9228 90.162 31.4374 90.162C30.9614 90.162 30.5554 90.3347 30.2194 90.68C29.8928 91.0253 29.7294 91.4967 29.7294 92.094C29.7294 92.6913 29.8928 93.1627 30.2194 93.508C30.5554 93.8533 30.9614 94.026 31.4374 94.026C31.9134 94.026 32.3194 93.8533 32.6554 93.508C32.9914 93.1533 33.1594 92.6773 33.1594 92.08ZM36.3754 92.08C36.3754 91.2773 36.5247 90.5727 36.8234 89.966C37.1314 89.3593 37.5467 88.8927 38.0694 88.566C38.5921 88.2393 39.1754 88.076 39.8194 88.076C40.3701 88.076 40.8507 88.188 41.2614 88.412C41.6814 88.636 42.0034 88.93 42.2274 89.294V88.188H44.6214V96H42.2274V94.894C41.9941 95.258 41.6674 95.552 41.2474 95.776C40.8367 96 40.3561 96.112 39.8054 96.112C39.1707 96.112 38.5921 95.9487 38.0694 95.622C37.5467 95.286 37.1314 94.8147 36.8234 94.208C36.5247 93.592 36.3754 92.8827 36.3754 92.08ZM42.2274 92.094C42.2274 91.4967 42.0594 91.0253 41.7234 90.68C41.3967 90.3347 40.9954 90.162 40.5194 90.162C40.0434 90.162 39.6374 90.3347 39.3014 90.68C38.9747 91.016 38.8114 91.4827 38.8114 92.08C38.8114 92.6773 38.9747 93.1533 39.3014 93.508C39.6374 93.8533 40.0434 94.026 40.5194 94.026C40.9954 94.026 41.3967 93.8533 41.7234 93.508C42.0594 93.1627 42.2274 92.6913 42.2274 92.094ZM49.5314 96.112C48.85 96.112 48.2434 95.9953 47.7114 95.762C47.1794 95.5287 46.7594 95.2113 46.4514 94.81C46.1434 94.3993 45.9707 93.942 45.9334 93.438H48.2994C48.3274 93.7087 48.4534 93.928 48.6774 94.096C48.9014 94.264 49.1767 94.348 49.5034 94.348C49.802 94.348 50.0307 94.292 50.1894 94.18C50.3574 94.0587 50.4414 93.9047 50.4414 93.718C50.4414 93.494 50.3247 93.3307 50.0914 93.228C49.858 93.116 49.48 92.9947 48.9574 92.864C48.3974 92.7333 47.9307 92.598 47.5574 92.458C47.184 92.3087 46.862 92.08 46.5914 91.772C46.3207 91.4547 46.1854 91.03 46.1854 90.498C46.1854 90.05 46.3067 89.644 46.5494 89.28C46.8014 88.9067 47.1654 88.6127 47.6414 88.398C48.1267 88.1833 48.7007 88.076 49.3634 88.076C50.3434 88.076 51.1134 88.3187 51.6734 88.804C52.2427 89.2893 52.5694 89.9333 52.6534 90.736H50.4414C50.404 90.4653 50.2827 90.2507 50.0774 90.092C49.8814 89.9333 49.62 89.854 49.2934 89.854C49.0134 89.854 48.7987 89.91 48.6494 90.022C48.5 90.1247 48.4254 90.2693 48.4254 90.456C48.4254 90.68 48.542 90.848 48.7754 90.96C49.018 91.072 49.3914 91.184 49.8954 91.296C50.474 91.4453 50.9454 91.5947 51.3094 91.744C51.6734 91.884 51.9907 92.1173 52.2614 92.444C52.5414 92.7613 52.686 93.1907 52.6954 93.732C52.6954 94.1893 52.5647 94.6 52.3034 94.964C52.0514 95.3187 51.6827 95.5987 51.1974 95.804C50.7214 96.0093 50.166 96.112 49.5314 96.112ZM61.524 91.968C61.524 92.192 61.51 92.4253 61.482 92.668H56.064C56.1013 93.1533 56.2553 93.5267 56.526 93.788C56.806 94.04 57.1467 94.166 57.548 94.166C58.1453 94.166 58.5607 93.914 58.794 93.41H61.342C61.2113 93.9233 60.9733 94.3853 60.628 94.796C60.292 95.2067 59.8673 95.5287 59.354 95.762C58.8407 95.9953 58.2667 96.112 57.632 96.112C56.8667 96.112 56.1853 95.9487 55.588 95.622C54.9907 95.2953 54.524 94.8287 54.188 94.222C53.852 93.6153 53.684 92.906 53.684 92.094C53.684 91.282 53.8473 90.5727 54.174 89.966C54.51 89.3593 54.9767 88.8927 55.574 88.566C56.1713 88.2393 56.8573 88.076 57.632 88.076C58.388 88.076 59.06 88.2347 59.648 88.552C60.236 88.8693 60.6933 89.322 61.02 89.91C61.356 90.498 61.524 91.184 61.524 91.968ZM59.074 91.338C59.074 90.9273 58.934 90.6007 58.654 90.358C58.374 90.1153 58.024 89.994 57.604 89.994C57.2027 89.994 56.862 90.1107 56.582 90.344C56.3113 90.5773 56.1433 90.9087 56.078 91.338H59.074Z" fill="white"/>
</svg>
