<svg width="45" height="100" viewBox="0 0 45 100" fill="none" xmlns="http://www.w3.org/2000/svg">
<path d="M44.1558 48.5179L24.4821 28.8442C23.3564 27.7186 21.4967 27.7186 20.3711 28.8442L16.3091 32.9062L21.4967 38.0938C22.7202 37.7023 24.0905 37.947 25.0204 38.9258C25.9992 39.9046 26.2439 41.2749 25.8524 42.4984L30.8442 47.4902C32.0677 47.0987 33.438 47.3434 34.4168 48.3222C35.7871 49.6436 35.7871 51.8458 34.4168 53.2162C33.0465 54.5865 30.8932 54.5865 29.5228 53.2162C28.4951 52.1884 28.2504 50.7202 28.7887 49.4478L24.1395 44.7985V57.0334C24.4821 57.1803 24.7757 57.425 25.0693 57.6697C26.4396 58.991 26.4396 61.1933 25.0693 62.5636C23.699 63.885 21.5457 63.885 20.1754 62.5636C18.8051 61.1933 18.8051 59.04 20.1754 57.6697C20.5179 57.3271 20.9095 57.0824 21.301 56.9356V44.5538C20.9095 44.407 20.5179 44.1134 20.1754 43.8197C19.1476 42.792 18.9029 41.3238 19.4413 40.0514L14.3026 34.9617L0.844209 48.4201C-0.281403 49.5457 -0.281403 51.4054 0.844209 52.531L20.469 72.1558C21.5946 73.2814 23.4543 73.2814 24.5799 72.1558L44.1069 52.6289C45.2814 51.4543 45.2814 49.6436 44.1558 48.5179Z" fill="white"/>
<path d="M18.3567 89.28C18.1794 88.9533 17.9227 88.706 17.5867 88.538C17.2601 88.3607 16.8727 88.272 16.4247 88.272C15.6501 88.272 15.0294 88.5287 14.5627 89.042C14.0961 89.546 13.8627 90.2227 13.8627 91.072C13.8627 91.9773 14.1054 92.6867 14.5907 93.2C15.0854 93.704 15.7621 93.956 16.6207 93.956C17.2087 93.956 17.7034 93.8067 18.1047 93.508C18.5154 93.2093 18.8141 92.78 19.0007 92.22H15.9627V90.456H21.1707V92.682C20.9934 93.2793 20.6901 93.8347 20.2607 94.348C19.8407 94.8613 19.3041 95.2767 18.6507 95.594C17.9974 95.9113 17.2601 96.07 16.4387 96.07C15.4681 96.07 14.6001 95.86 13.8347 95.44C13.0787 95.0107 12.4861 94.418 12.0567 93.662C11.6367 92.906 11.4267 92.0427 11.4267 91.072C11.4267 90.1013 11.6367 89.238 12.0567 88.482C12.4861 87.7167 13.0787 87.124 13.8347 86.704C14.5907 86.2747 15.4541 86.06 16.4247 86.06C17.6007 86.06 18.5901 86.3447 19.3927 86.914C20.2047 87.4833 20.7414 88.272 21.0027 89.28H18.3567ZM24.8908 86.172V96H22.4968V86.172H24.8908ZM33.6957 86.172V88.09H31.0917V96H28.6977V88.09H26.0937V86.172H33.6957Z" fill="white"/>
</svg>
