<svg width="41" height="100" viewBox="0 0 41 100" fill="none" xmlns="http://www.w3.org/2000/svg">
<path d="M20.25 64.4005L30.645 61.5745L32.0467 46.324H13.5585L13.0995 41.2525H32.508L33.0187 36.2778H7.48125L8.91225 51.3033H26.5072L25.92 57.7517L20.25 59.2525L14.58 57.7517L14.2245 53.6027H9.117L9.85725 61.5768L20.25 64.4005ZM0 28H40.5L36.8482 68.5L20.25 73L3.65175 68.5L0 28Z" fill="white"/>
<path d="M10.6124 86.172V96H8.21842V91.954H4.49442V96H2.10042V86.172H4.49442V90.022H8.21842V86.172H10.6124ZM19.4107 86.172V88.09H16.8067V96H14.4127V88.09H11.8087V86.172H19.4107ZM31.7421 86.172V96H29.3481V90.106L27.1501 96H25.2181L23.0061 90.092V96H20.6121V86.172H23.4401L26.1981 92.976L28.9281 86.172H31.7421ZM35.8577 94.152H38.9937V96H33.4637V86.172H35.8577V94.152Z" fill="white"/>
</svg>
