<svg width="64" height="100" viewBox="0 0 64 100" fill="none" xmlns="http://www.w3.org/2000/svg">
<path d="M26.5442 69.1688C23.5117 68.3159 20.8447 66.7455 18.5162 64.5523C17.7852 64.8096 17.0406 65.0668 16.2825 65.3105C15.9305 65.4188 15.5785 65.3782 15.213 65.2428C14.5631 64.9991 14.1705 64.5253 13.8862 63.9431C13.4936 63.1715 12.9927 62.4675 12.6001 61.6958C12.2482 60.9783 11.7337 60.3556 11.4359 59.611C11.287 59.2455 10.8944 59.0018 10.8944 58.5415C10.5424 57.9729 10.8808 57.472 11.0839 56.9711C11.1381 56.8357 11.2057 56.6597 11.3276 56.6056C11.8149 56.389 12.0586 55.9016 12.4648 55.6038C12.6543 55.4684 12.8574 55.3195 13.074 55.157C12.7626 53.6002 12.4918 52.0433 12.4918 50.4458C12.4918 48.8619 12.7761 47.3321 13.074 45.8159C12.546 45.3285 12.0586 44.8547 11.5442 44.4079C11.0162 43.9477 10.7048 43.3791 10.7725 42.7834C10.8131 42.4585 10.9079 42.1065 11.0704 41.8357C11.5713 41.037 12.0316 40.1977 12.5189 39.3854C12.9115 38.7356 13.25 38.0587 13.6832 37.4224C13.9133 37.0975 14.0487 36.7184 14.2788 36.38C14.7256 35.7437 15.6191 35.4323 16.3501 35.6489C17 35.8384 17.6092 36.1227 18.2725 36.2446C18.3402 36.2581 18.3944 36.3529 18.4621 36.4206C20.8041 34.241 23.4711 32.6841 26.5306 31.7771C26.6525 31.4116 26.6796 31.019 26.8285 30.6399C26.9368 30.3556 26.9097 30.0036 26.9639 29.6922C27.1128 28.88 27.6137 28.4061 28.3312 28.1625C28.5884 28.0812 28.8456 28 29.157 28C31.0523 28.0271 32.9476 28.0271 34.8429 28C35.3844 28 35.8447 28.2166 36.2779 28.4603C36.6705 28.6634 36.8871 29.0966 36.9954 29.5027C37.185 30.2473 37.2933 31.0054 37.4422 31.7906C40.4882 32.657 43.1552 34.2139 45.4837 36.407C46.2148 36.1498 46.9593 35.8926 47.7175 35.6489C48.0695 35.5406 48.4214 35.5812 48.787 35.7166C49.4368 35.9603 49.8294 36.4341 50.1137 37.0162C50.5063 37.7879 51.0072 38.4919 51.3998 39.2635C51.7518 39.981 52.2662 40.6038 52.564 41.3484C52.713 41.7139 53.1056 41.9576 53.1056 42.4179C53.4575 42.9865 53.1191 43.4874 52.916 43.9883C52.8619 44.1236 52.7942 44.2996 52.6723 44.3538C52.185 44.5704 51.9413 45.0578 51.5352 45.3556C51.3456 45.491 51.1426 45.6399 50.9259 45.8023C51.2373 47.3592 51.5081 48.9161 51.5081 50.5135C51.5081 52.0975 51.2644 53.6273 50.9259 55.1435C51.4539 55.6309 51.9413 56.1047 52.4557 56.5514C52.9837 57.0117 53.2951 57.5803 53.2274 58.176C53.1868 58.5009 53.1056 58.8529 52.9296 59.1236C52.4422 59.9088 51.9819 60.7211 51.5081 61.5199C50.9124 62.5081 50.425 63.5776 49.7346 64.5117C49.6128 65.0262 49.1254 65.0668 48.7734 65.2563C48.3944 65.4594 48.0153 65.4052 47.5956 65.2834C46.9729 65.1074 46.3772 64.796 45.7274 64.7148C45.6597 64.7013 45.6056 64.6065 45.5379 64.5388C43.1958 66.7455 40.5424 68.3159 37.4422 69.1958C37.2933 69.9269 37.1579 70.685 36.9954 71.4296C36.833 72.1606 36.3456 72.6209 35.6552 72.8375C35.398 72.9188 35.1272 73 34.8294 73C32.9341 72.9729 31.0388 72.9729 29.1435 73C28.6019 73 28.1417 72.7834 27.7084 72.5397C27.3158 72.3366 27.0857 71.9034 27.0045 71.4973C26.8556 70.6986 26.7066 69.954 26.5442 69.1688ZM27.4242 57.2419C27.6949 57.093 28.0063 56.9982 28.0198 56.6733C28.0469 56.1859 28.1146 55.685 28.0063 55.2247C27.8167 54.4395 27.4783 53.6814 27.2752 52.8962C27.1399 52.3953 26.842 51.9215 26.8556 51.38C26.4223 50.3105 26.1516 49.1868 25.7861 48.1038C25.4882 47.2103 25.2716 46.2897 24.9467 45.4097C24.7707 44.9224 24.7301 44.3809 24.4052 43.9477C24.3781 43.907 24.3646 43.88 24.3646 43.88C23.9991 43.6363 23.62 43.7175 23.2951 43.7175C23.1056 43.8935 22.9431 44.0424 22.7942 44.1778C22.7806 44.611 22.4693 44.9495 22.5234 45.3691C22.0496 46.4251 21.8465 47.5623 21.4539 48.6453C21.2509 49.2004 21.129 49.769 20.9666 50.3375C20.8177 50.9061 20.4927 51.4206 20.4927 52.0298C19.9783 53.1805 19.7211 54.4125 19.342 55.6173C19.2473 55.9152 19.1931 56.1995 19.3826 56.4838C19.4368 56.565 19.4097 56.6868 19.4097 56.6733C19.6263 56.9034 19.7888 57.0659 19.9242 57.2283C20.1814 57.2283 20.4521 57.2283 20.7364 57.2283C20.926 56.9847 21.1155 56.7545 21.2915 56.5244C21.2509 55.7527 21.4133 55.2383 21.7653 54.4125C23.092 54.4125 24.4187 54.4125 25.7455 54.4125C25.8538 54.8457 25.9079 55.2653 26.0568 55.6579C26.1245 55.8204 26.1922 55.9829 26.1651 56.1453C26.1245 56.6462 26.287 57.0388 26.8556 57.2283C26.9909 57.2419 27.194 57.2419 27.4242 57.2419ZM30.592 57.2419C30.9575 57.2148 31.3772 57.3231 31.6751 57.0253C31.7834 56.8899 31.8781 56.7545 32.0135 56.565C32.0135 55.2112 32.0135 53.7897 32.0135 52.3682C33.0018 52.3682 33.9765 52.3276 34.9377 52.3818C35.5198 52.4088 35.9936 52.2329 36.4539 51.9486C36.6705 51.8132 36.8601 51.6101 37.0496 51.4206C37.5505 50.9332 37.7942 50.3375 37.8077 49.6336C37.8077 48.5235 37.8077 47.4269 37.8077 46.3168C37.8077 46.1543 37.7671 45.9783 37.7265 45.8159C37.5776 45.2338 37.2662 44.8005 36.8465 44.4215C36.3592 43.9747 35.7906 43.704 35.1137 43.704C33.5974 43.704 32.0947 43.704 30.5649 43.704C30.416 43.8664 30.2671 44.0289 30.0911 44.1913C30.0911 48.361 30.0911 52.5578 30.0911 56.7681C30.2671 56.917 30.4296 57.0794 30.592 57.2419ZM40.3393 57.2419C41.2734 57.2419 42.2211 57.2419 43.1552 57.2419C43.3176 57.0794 43.4801 56.917 43.6426 56.7681C43.6426 56.5108 43.6426 56.2671 43.6426 56.0099C43.6426 55.9829 43.6426 55.9693 43.6426 55.9558C43.4395 55.5767 43.1281 55.3466 42.722 55.306C42.722 52.0704 42.722 48.8484 42.722 45.694C43.0198 45.5451 43.277 45.4097 43.5749 45.2473C43.6155 44.8953 43.6426 44.5298 43.6696 44.2726C43.453 44.0289 43.3041 43.8529 43.1823 43.7175C42.2075 43.7175 41.2599 43.7175 40.4205 43.7175C40.1904 43.9206 40.0279 44.0695 39.8249 44.259C39.8655 44.5839 39.9196 44.9495 39.9602 45.2608C40.2852 45.4233 40.5424 45.5587 40.7725 45.6805C40.7725 48.9025 40.7725 52.1245 40.7725 55.3195C40.6371 55.3466 40.4882 55.3195 40.4341 55.3872C40.2445 55.5767 39.9196 55.6309 39.8519 55.9422C39.8519 56.213 39.8519 56.4838 39.8519 56.7545C40.0144 56.917 40.1769 57.0794 40.3393 57.2419Z" fill="white"/>
<path d="M25.028 52.3409C24.2292 52.368 23.3899 52.3815 22.5505 52.4086C22.5235 52.4086 22.4828 52.4628 22.4016 52.5305C22.4151 51.6911 22.889 51.0142 22.9431 50.2425C23.3493 49.5656 23.3899 48.7669 23.6606 48.0088C23.7419 48.09 23.8637 48.1712 23.8637 48.2389C23.8772 48.8211 24.2157 49.322 24.324 49.877C24.4052 50.2561 24.6218 50.6216 24.676 51.0007C24.7301 51.488 25.055 51.8536 25.028 52.3409Z" fill="white"/>
<path d="M35.926 49.7153C35.8313 49.8642 35.75 50.0131 35.6417 50.1485C35.4522 50.3651 35.2085 50.487 34.8971 50.4734C33.9495 50.4599 33.0018 50.4734 32.0271 50.4734C32.0271 48.8624 32.0271 47.2514 32.0271 45.5998C33.0154 45.5998 34.0307 45.5862 35.0325 45.5998C35.5063 45.6133 35.9125 46.1007 35.926 46.6151C35.926 47.468 35.926 48.3209 35.926 49.1738C35.926 49.3633 35.926 49.5393 35.926 49.7153Z" fill="white"/>
<path d="M6.21594 96L4.17194 92.29H3.59794V96H1.20394V86.172H5.22194C5.9966 86.172 6.6546 86.3073 7.19594 86.578C7.7466 86.8487 8.15727 87.222 8.42794 87.698C8.6986 88.1647 8.83394 88.6873 8.83394 89.266C8.83394 89.9193 8.64727 90.5027 8.27394 91.016C7.90994 91.5293 7.3686 91.8933 6.64994 92.108L8.91794 96H6.21594ZM3.59794 90.596H5.08194C5.5206 90.596 5.84727 90.4887 6.06194 90.274C6.28594 90.0593 6.39794 89.756 6.39794 89.364C6.39794 88.9907 6.28594 88.6967 6.06194 88.482C5.84727 88.2673 5.5206 88.16 5.08194 88.16H3.59794V90.596ZM17.7007 91.968C17.7007 92.192 17.6868 92.4253 17.6588 92.668H12.2408C12.2781 93.1533 12.4321 93.5267 12.7028 93.788C12.9828 94.04 13.3234 94.166 13.7248 94.166C14.3221 94.166 14.7374 93.914 14.9708 93.41H17.5188C17.3881 93.9233 17.1501 94.3853 16.8048 94.796C16.4688 95.2067 16.0441 95.5287 15.5308 95.762C15.0174 95.9953 14.4434 96.112 13.8088 96.112C13.0434 96.112 12.3621 95.9487 11.7648 95.622C11.1674 95.2953 10.7008 94.8287 10.3648 94.222C10.0288 93.6153 9.86075 92.906 9.86075 92.094C9.86075 91.282 10.0241 90.5727 10.3508 89.966C10.6868 89.3593 11.1534 88.8927 11.7508 88.566C12.3481 88.2393 13.0341 88.076 13.8088 88.076C14.5648 88.076 15.2368 88.2347 15.8248 88.552C16.4128 88.8693 16.8701 89.322 17.1968 89.91C17.5328 90.498 17.7007 91.184 17.7007 91.968ZM15.2508 91.338C15.2508 90.9273 15.1108 90.6007 14.8308 90.358C14.5508 90.1153 14.2008 89.994 13.7808 89.994C13.3794 89.994 13.0388 90.1107 12.7588 90.344C12.4881 90.5773 12.3201 90.9087 12.2548 91.338H15.2508ZM22.1417 96.112C21.4604 96.112 20.8537 95.9953 20.3217 95.762C19.7897 95.5287 19.3697 95.2113 19.0617 94.81C18.7537 94.3993 18.581 93.942 18.5437 93.438H20.9097C20.9377 93.7087 21.0637 93.928 21.2877 94.096C21.5117 94.264 21.787 94.348 22.1137 94.348C22.4124 94.348 22.641 94.292 22.7997 94.18C22.9677 94.0587 23.0517 93.9047 23.0517 93.718C23.0517 93.494 22.935 93.3307 22.7017 93.228C22.4684 93.116 22.0904 92.9947 21.5677 92.864C21.0077 92.7333 20.541 92.598 20.1677 92.458C19.7944 92.3087 19.4724 92.08 19.2017 91.772C18.931 91.4547 18.7957 91.03 18.7957 90.498C18.7957 90.05 18.917 89.644 19.1597 89.28C19.4117 88.9067 19.7757 88.6127 20.2517 88.398C20.737 88.1833 21.311 88.076 21.9737 88.076C22.9537 88.076 23.7237 88.3187 24.2837 88.804C24.853 89.2893 25.1797 89.9333 25.2637 90.736H23.0517C23.0144 90.4653 22.893 90.2507 22.6877 90.092C22.4917 89.9333 22.2304 89.854 21.9037 89.854C21.6237 89.854 21.409 89.91 21.2597 90.022C21.1104 90.1247 21.0357 90.2693 21.0357 90.456C21.0357 90.68 21.1524 90.848 21.3857 90.96C21.6284 91.072 22.0017 91.184 22.5057 91.296C23.0844 91.4453 23.5557 91.5947 23.9197 91.744C24.2837 91.884 24.601 92.1173 24.8717 92.444C25.1517 92.7613 25.2964 93.1907 25.3057 93.732C25.3057 94.1893 25.175 94.6 24.9137 94.964C24.6617 95.3187 24.293 95.5987 23.8077 95.804C23.3317 96.0093 22.7764 96.112 22.1417 96.112ZM31.1243 93.97V96H29.9063C29.0383 96 28.3617 95.79 27.8763 95.37C27.391 94.9407 27.1483 94.2453 27.1483 93.284V90.176H26.1963V88.188H27.1483V86.284H29.5423V88.188H31.1103V90.176H29.5423V93.312C29.5423 93.5453 29.5983 93.7133 29.7103 93.816C29.8223 93.9187 30.009 93.97 30.2703 93.97H31.1243ZM38.4778 90.092V92.08H32.3178V90.092H38.4778ZM46.6969 94.264H43.0289L42.4409 96H39.9349L43.4909 86.172H46.2629L49.8189 96H47.2849L46.6969 94.264ZM46.0809 92.416L44.8629 88.818L43.6589 92.416H46.0809ZM53.2952 89.294C53.5285 88.93 53.8505 88.636 54.2612 88.412C54.6719 88.188 55.1525 88.076 55.7032 88.076C56.3472 88.076 56.9305 88.2393 57.4532 88.566C57.9759 88.8927 58.3865 89.3593 58.6852 89.966C58.9932 90.5727 59.1472 91.2773 59.1472 92.08C59.1472 92.8827 58.9932 93.592 58.6852 94.208C58.3865 94.8147 57.9759 95.286 57.4532 95.622C56.9305 95.9487 56.3472 96.112 55.7032 96.112C55.1619 96.112 54.6812 96 54.2612 95.776C53.8505 95.552 53.5285 95.2627 53.2952 94.908V99.724H50.9012V88.188H53.2952V89.294ZM56.7112 92.08C56.7112 91.4827 56.5432 91.016 56.2072 90.68C55.8805 90.3347 55.4745 90.162 54.9892 90.162C54.5132 90.162 54.1072 90.3347 53.7712 90.68C53.4445 91.0253 53.2812 91.4967 53.2812 92.094C53.2812 92.6913 53.4445 93.1627 53.7712 93.508C54.1072 93.8533 54.5132 94.026 54.9892 94.026C55.4652 94.026 55.8712 93.8533 56.2072 93.508C56.5432 93.1533 56.7112 92.6773 56.7112 92.08ZM61.6072 87.376C61.1872 87.376 60.8418 87.2547 60.5712 87.012C60.3098 86.76 60.1792 86.452 60.1792 86.088C60.1792 85.7147 60.3098 85.4067 60.5712 85.164C60.8418 84.912 61.1872 84.786 61.6072 84.786C62.0178 84.786 62.3538 84.912 62.6152 85.164C62.8858 85.4067 63.0212 85.7147 63.0212 86.088C63.0212 86.452 62.8858 86.76 62.6152 87.012C62.3538 87.2547 62.0178 87.376 61.6072 87.376ZM62.7972 88.188V96H60.4032V88.188H62.7972Z" fill="white"/>
</svg>
