<svg width="77" height="100" viewBox="0 0 77 100" fill="none" xmlns="http://www.w3.org/2000/svg">
<path d="M60.9386 31.5812C60.6112 29.8622 59.2811 28.4707 57.5826 28.1023C57.5007 28.0819 57.4189 28.0819 57.3165 28.0614C57.2961 28.0614 57.2756 28.0205 57.2551 28H19.7245C19.704 28.0205 19.6835 28.0614 19.6426 28.0614C17.9441 28.3479 16.5116 29.6985 16.1228 31.4175C16.1024 31.4789 16.0614 31.5607 16.0205 31.6426V69.2756C16.041 69.3165 16.0819 69.337 16.0819 69.3779C16.4912 71.2606 17.6372 72.427 19.4994 72.8977C19.5608 72.9181 19.6017 72.9591 19.6426 73H57.3165C57.3575 72.9795 57.3779 72.9386 57.4189 72.9181C59.2811 72.4884 60.427 71.3629 60.8977 69.5007C60.9182 69.4393 60.8977 69.3574 60.9182 69.296C60.9182 69.2756 60.9591 69.2551 60.9796 69.2347V31.704C60.9796 31.663 60.9386 31.6426 60.9386 31.5812ZM42.1119 52.9454H41.8868C40.1883 52.9454 38.4693 52.9454 36.7708 52.9454C36.689 52.9454 36.6071 52.9454 36.5253 52.9454C36.5253 52.9659 36.5048 52.9659 36.5048 52.9864C36.5048 53.0682 36.5048 53.1501 36.5048 53.2319V69.0096H32.0232V52.9659H26.3957V49.3847H42.0914V52.9454H42.1119ZM57.2142 63.648C57.1733 64.3438 57.071 65.0191 56.7845 65.6739C56.7026 65.8786 56.6412 66.0628 56.5389 66.2674C56.1706 67.045 55.5566 67.5975 54.8404 68.0477C54.0219 68.5593 53.1214 68.8458 52.1801 69.03C51.1365 69.2347 50.0928 69.296 49.0287 69.2551C48.5171 69.2347 48.0055 69.2347 47.4939 69.1733C46.2865 69.03 45.0996 68.764 43.9946 68.2319C43.9332 68.2115 43.8513 68.1091 43.8513 68.0477C43.8513 66.7176 43.8513 65.3875 43.8513 64.0573C43.8513 64.0368 43.8513 64.0164 43.8513 63.9754C44.1788 64.2005 44.5062 64.4256 44.8336 64.6098C45.6317 65.0805 46.5116 65.4079 47.412 65.6126C48.1897 65.7967 48.9673 65.8172 49.7449 65.7763C50.3384 65.7558 50.9318 65.6126 51.4639 65.3465C51.9345 65.101 52.3234 64.7735 52.4257 64.221C52.528 63.7299 52.4871 63.2387 52.2006 62.809C51.7913 62.1951 51.2183 61.8063 50.5839 61.4789C49.8677 61.131 49.1515 60.824 48.4148 60.4966C47.3302 60.0055 46.2661 59.4734 45.3861 58.6548C44.6699 57.9795 44.1378 57.1814 43.8923 56.2196C43.749 55.6467 43.7081 55.0737 43.7285 54.5007C43.749 53.0887 44.2606 51.8813 45.2633 50.8786C46.0819 50.06 47.0846 49.5689 48.1897 49.2824C48.9468 49.0982 49.704 48.955 50.4816 48.9345C51.0341 48.9345 51.5867 48.8731 52.1187 48.8936C52.9577 48.9141 53.7763 48.955 54.5948 49.1596C55.1269 49.3029 55.6794 49.4461 56.2115 49.5689C56.3138 49.5894 56.3547 49.6508 56.3547 49.7735C56.3547 51.0423 56.3547 52.3315 56.3547 53.6003C56.3547 53.6412 56.3547 53.6821 56.3343 53.7435C56.1706 53.6412 56.0273 53.5593 55.8841 53.4775C55.2292 53.1091 54.5335 52.8636 53.8172 52.6794C53.0191 52.4952 52.221 52.3724 51.4025 52.3929C50.85 52.4134 50.277 52.4952 49.7654 52.6794C49.131 52.9045 48.6194 53.2729 48.3943 53.9482C48.2101 54.4802 48.3534 54.9304 48.6808 55.3602C49.0901 55.8922 49.6426 56.2606 50.236 56.5471C51.0341 56.9359 51.8527 57.2633 52.6303 57.6317C53.5307 58.0614 54.4311 58.4911 55.1883 59.1255C55.8431 59.678 56.4366 60.292 56.764 61.1105C56.9482 61.6016 57.1119 62.1132 57.1119 62.6658C57.1938 62.9932 57.2347 63.3206 57.2142 63.648Z" fill="white"/>
<path d="M8.02003 86.172V88.09H5.41603V96H3.02203V88.09H0.418031V86.172H8.02003ZM17.2015 88.188L12.3015 99.71H9.72552L11.5175 95.734L8.33952 88.188H11.0135L12.8195 93.074L14.6115 88.188H17.2015ZM20.4612 89.294C20.6946 88.93 21.0166 88.636 21.4272 88.412C21.8379 88.188 22.3186 88.076 22.8692 88.076C23.5132 88.076 24.0966 88.2393 24.6192 88.566C25.1419 88.8927 25.5526 89.3593 25.8512 89.966C26.1592 90.5727 26.3132 91.2773 26.3132 92.08C26.3132 92.8827 26.1592 93.592 25.8512 94.208C25.5526 94.8147 25.1419 95.286 24.6192 95.622C24.0966 95.9487 23.5132 96.112 22.8692 96.112C22.3279 96.112 21.8472 96 21.4272 95.776C21.0166 95.552 20.6946 95.2627 20.4612 94.908V99.724H18.0672V88.188H20.4612V89.294ZM23.8772 92.08C23.8772 91.4827 23.7092 91.016 23.3732 90.68C23.0466 90.3347 22.6406 90.162 22.1552 90.162C21.6792 90.162 21.2732 90.3347 20.9372 90.68C20.6106 91.0253 20.4472 91.4967 20.4472 92.094C20.4472 92.6913 20.6106 93.1627 20.9372 93.508C21.2732 93.8533 21.6792 94.026 22.1552 94.026C22.6312 94.026 23.0372 93.8533 23.3732 93.508C23.7092 93.1533 23.8772 92.6773 23.8772 92.08ZM34.9332 91.968C34.9332 92.192 34.9192 92.4253 34.8912 92.668H29.4732C29.5105 93.1533 29.6645 93.5267 29.9352 93.788C30.2152 94.04 30.5558 94.166 30.9572 94.166C31.5545 94.166 31.9698 93.914 32.2032 93.41H34.7512C34.6205 93.9233 34.3825 94.3853 34.0372 94.796C33.7012 95.2067 33.2765 95.5287 32.7632 95.762C32.2498 95.9953 31.6758 96.112 31.0412 96.112C30.2758 96.112 29.5945 95.9487 28.9972 95.622C28.3998 95.2953 27.9332 94.8287 27.5972 94.222C27.2612 93.6153 27.0932 92.906 27.0932 92.094C27.0932 91.282 27.2565 90.5727 27.5832 89.966C27.9192 89.3593 28.3858 88.8927 28.9832 88.566C29.5805 88.2393 30.2665 88.076 31.0412 88.076C31.7972 88.076 32.4692 88.2347 33.0572 88.552C33.6452 88.8693 34.1025 89.322 34.4292 89.91C34.7652 90.498 34.9332 91.184 34.9332 91.968ZM32.4832 91.338C32.4832 90.9273 32.3432 90.6007 32.0632 90.358C31.7832 90.1153 31.4332 89.994 31.0132 89.994C30.6118 89.994 30.2712 90.1107 29.9912 90.344C29.7205 90.5773 29.5525 90.9087 29.4872 91.338H32.4832ZM39.3741 96.112C38.6928 96.112 38.0861 95.9953 37.5541 95.762C37.0221 95.5287 36.6021 95.2113 36.2941 94.81C35.9861 94.3993 35.8135 93.942 35.7761 93.438H38.1421C38.1701 93.7087 38.2961 93.928 38.5201 94.096C38.7441 94.264 39.0195 94.348 39.3461 94.348C39.6448 94.348 39.8735 94.292 40.0321 94.18C40.2001 94.0587 40.2841 93.9047 40.2841 93.718C40.2841 93.494 40.1675 93.3307 39.9341 93.228C39.7008 93.116 39.3228 92.9947 38.8001 92.864C38.2401 92.7333 37.7735 92.598 37.4001 92.458C37.0268 92.3087 36.7048 92.08 36.4341 91.772C36.1635 91.4547 36.0281 91.03 36.0281 90.498C36.0281 90.05 36.1495 89.644 36.3921 89.28C36.6441 88.9067 37.0081 88.6127 37.4841 88.398C37.9695 88.1833 38.5435 88.076 39.2061 88.076C40.1861 88.076 40.9561 88.3187 41.5161 88.804C42.0855 89.2893 42.4121 89.9333 42.4961 90.736H40.2841C40.2468 90.4653 40.1255 90.2507 39.9201 90.092C39.7241 89.9333 39.4628 89.854 39.1361 89.854C38.8561 89.854 38.6415 89.91 38.4921 90.022C38.3428 90.1247 38.2681 90.2693 38.2681 90.456C38.2681 90.68 38.3848 90.848 38.6181 90.96C38.8608 91.072 39.2341 91.184 39.7381 91.296C40.3168 91.4453 40.7881 91.5947 41.1521 91.744C41.5161 91.884 41.8335 92.1173 42.1041 92.444C42.3841 92.7613 42.5288 93.1907 42.5381 93.732C42.5381 94.1893 42.4075 94.6 42.1461 94.964C41.8941 95.3187 41.5255 95.5987 41.0401 95.804C40.5641 96.0093 40.0088 96.112 39.3741 96.112ZM43.5268 92.094C43.5268 91.282 43.6901 90.5727 44.0168 89.966C44.3528 89.3593 44.8148 88.8927 45.4028 88.566C46.0001 88.2393 46.6814 88.076 47.4468 88.076C48.4268 88.076 49.2434 88.3327 49.8968 88.846C50.5594 89.3593 50.9934 90.0827 51.1988 91.016H48.6508C48.4361 90.4187 48.0208 90.12 47.4048 90.12C46.9661 90.12 46.6161 90.2927 46.3548 90.638C46.0934 90.974 45.9628 91.4593 45.9628 92.094C45.9628 92.7287 46.0934 93.2187 46.3548 93.564C46.6161 93.9 46.9661 94.068 47.4048 94.068C48.0208 94.068 48.4361 93.7693 48.6508 93.172H51.1988C50.9934 94.0867 50.5594 94.8053 49.8968 95.328C49.2341 95.8507 48.4174 96.112 47.4468 96.112C46.6814 96.112 46.0001 95.9487 45.4028 95.622C44.8148 95.2953 44.3528 94.8287 44.0168 94.222C43.6901 93.6153 43.5268 92.906 43.5268 92.094ZM54.8733 89.49C55.1533 89.0607 55.5033 88.7247 55.9233 88.482C56.3433 88.23 56.81 88.104 57.3233 88.104V90.638H56.6653C56.068 90.638 55.62 90.7687 55.3213 91.03C55.0227 91.282 54.8733 91.73 54.8733 92.374V96H52.4793V88.188H54.8733V89.49ZM59.6716 87.376C59.2516 87.376 58.9063 87.2547 58.6356 87.012C58.3743 86.76 58.2436 86.452 58.2436 86.088C58.2436 85.7147 58.3743 85.4067 58.6356 85.164C58.9063 84.912 59.2516 84.786 59.6716 84.786C60.0823 84.786 60.4183 84.912 60.6796 85.164C60.9503 85.4067 61.0856 85.7147 61.0856 86.088C61.0856 86.452 60.9503 86.76 60.6796 87.012C60.4183 87.2547 60.0823 87.376 59.6716 87.376ZM60.8616 88.188V96H58.4676V88.188H60.8616ZM64.9905 89.294C65.2238 88.93 65.5458 88.636 65.9565 88.412C66.3672 88.188 66.8478 88.076 67.3985 88.076C68.0425 88.076 68.6258 88.2393 69.1485 88.566C69.6712 88.8927 70.0818 89.3593 70.3805 89.966C70.6885 90.5727 70.8425 91.2773 70.8425 92.08C70.8425 92.8827 70.6885 93.592 70.3805 94.208C70.0818 94.8147 69.6712 95.286 69.1485 95.622C68.6258 95.9487 68.0425 96.112 67.3985 96.112C66.8572 96.112 66.3765 96 65.9565 95.776C65.5458 95.552 65.2238 95.2627 64.9905 94.908V99.724H62.5965V88.188H64.9905V89.294ZM68.4065 92.08C68.4065 91.4827 68.2385 91.016 67.9025 90.68C67.5758 90.3347 67.1698 90.162 66.6845 90.162C66.2085 90.162 65.8025 90.3347 65.4665 90.68C65.1398 91.0253 64.9765 91.4967 64.9765 92.094C64.9765 92.6913 65.1398 93.1627 65.4665 93.508C65.8025 93.8533 66.2085 94.026 66.6845 94.026C67.1605 94.026 67.5665 93.8533 67.9025 93.508C68.2385 93.1533 68.4065 92.6773 68.4065 92.08ZM76.4525 93.97V96H75.2345C74.3665 96 73.6898 95.79 73.2045 95.37C72.7191 94.9407 72.4765 94.2453 72.4765 93.284V90.176H71.5245V88.188H72.4765V86.284H74.8705V88.188H76.4385V90.176H74.8705V93.312C74.8705 93.5453 74.9265 93.7133 75.0385 93.816C75.1505 93.9187 75.3371 93.97 75.5985 93.97H76.4525Z" fill="white"/>
</svg>
